<?xml version="1.0"?>
<!--Icons from directory ""-->
<svg xmlns="http://www.w3.org/2000/svg" width="20" height="60" viewBox="0 0 20 60"><svg xmlns:xlink="http://www.w3.org/1999/xlink" id="star-rating-hover" xml:space="preserve" viewBox="0 0 16 15.2" version="1.1" y="0" x="0px" enable-background="new 0 0 16 15.2" width="20" height="20"><polygon points="13 15.2 8 11.6 3.1 15.2 5 9.4 0 5.8 6.1 5.8 8 0 9.9 5.8 16 5.8 11.1 9.4" fill="#D51F01"/></svg><svg xmlns:xlink="http://www.w3.org/1999/xlink" id="star-rating-on" xml:space="preserve" viewBox="0 0 16 15.2" version="1.1" y="20" x="0px" enable-background="new 0 0 16 15.2" width="20" height="20"><polygon points="13 15.2 8 11.6 3.1 15.2 5 9.4 0 5.8 6.1 5.8 8 0 9.9 5.8 16 5.8 11.1 9.4" fill="#E2C207"/></svg><svg xmlns:xlink="http://www.w3.org/1999/xlink" id="star-rating" xml:space="preserve" viewBox="0 0 16 15.2" version="1.1" y="40" x="0px" enable-background="new 0 0 16 15.2" width="20" height="20"><polygon points="13 15.2 8 11.6 3.1 15.2 5 9.4 0 5.8 6.1 5.8 8 0 9.9 5.8 16 5.8 11.1 9.4" fill="#bbb"/></svg></svg>
