<?xml version="1.0" encoding="UTF-8"?>
<svg enable-background="new 0 0 181.3 39.7" version="1.1" viewBox="0 0 181.3 39.7" xml:space="preserve" xmlns="http://www.w3.org/2000/svg" xmlns:xlink="http://www.w3.org/1999/xlink">
<style type="text/css">
	.st0{clip-path:url(#i);}
	.st1{fill:url(#h);}
	.st2{fill:url(#a);}
	.st3{clip-path:url(#f);}
	.st4{clip-path:url(#d);}
	.st5{clip-path:url(#b);}
	.st6{opacity:0.6;clip-path:url(#ac);}
	.st7{clip-path:url(#aa);fill:#FFFFFF;}
	.st8{opacity:0.6;clip-path:url(#y);}
	.st9{opacity:0.26;clip-path:url(#w);}
	.st10{clip-path:url(#u);fill:#FFFFFF;}
	.st11{opacity:0.1;clip-path:url(#r);}
	.st12{clip-path:url(#p);}
	.st13{opacity:0.26;clip-path:url(#n);}
	.st14{clip-path:url(#l);fill:#A1CEE6;}
	.st15{clip-path:url(#j);}
	.st16{fill:none;}
</style>
			<defs>
				<circle id="t" cx="19.8" cy="19.8" r="19.8"/>
			</defs>
			<clipPath id="i">
				<use xlink:href="#t"/>
			</clipPath>
			<g class="st0">
						<linearGradient id="h" x1="19.94" x2="19.94" y1="-811.42" y2="-768.8" gradientTransform="matrix(1 0 0 -1 0 -770.98)" gradientUnits="userSpaceOnUse">
						<stop stop-color="#29B386" offset="0"/>
						<stop stop-color="#2BAE8C" offset=".2716"/>
						<stop stop-color="#30A09D" offset=".6316"/>
						<stop stop-color="#378BB5" offset="1"/>
					</linearGradient>
					<rect class="st1" x="-1.4" y="-2.2" width="42.7" height="42.7"/>
						<radialGradient id="a" cx="19.796" cy="-790.17" r="21.318" gradientTransform="matrix(1 0 0 -1 0 -770.98)" gradientUnits="userSpaceOnUse">
						<stop stop-color="#fff" stop-opacity=".38" offset="0"/>
						<stop stop-color="#fff" stop-opacity="0" offset="1"/>
					</radialGradient>
					<rect class="st2" x="-1.5" y="-2.1" width="42.7" height="42.7"/>
			</g>
		<defs>
			<circle id="g" cx="19.8" cy="19.8" r="19.8"/>
		</defs>
		<clipPath id="f">
			<use xlink:href="#g"/>
		</clipPath>
		<g class="st3">
					<defs>
						<rect id="e" x="-1.5" y="-2.2" width="42.7" height="42.7"/>
					</defs>
					<clipPath id="d">
						<use xlink:href="#e"/>
					</clipPath>
					<g class="st4">
							<defs>
								<rect id="c" x="-1.5" y="-2.2" width="42.7" height="42.7"/>
							</defs>
							<clipPath id="b">
								<use xlink:href="#c"/>
							</clipPath>
							<g class="st5">
									<defs>
										<rect id="ad" x="-1.5" y="-2.2" width="42.7" height="42.7"/>
									</defs>
									<clipPath id="ac">
										<use xlink:href="#ad"/>
									</clipPath>
									<g class="st6">
												<defs>
													<rect id="ab" x="5.4" y="4.5" width="30.4" height="31.9"/>
												</defs>
												<clipPath id="aa">
													<use xlink:href="#ab"/>
												</clipPath>
												<path class="st7" d="m7.4 33c2.6 3 7.2 3.5 9.8 3.5 2.5 0 7.3-0.5 10.8-3.5 3.5-2.9 4.3-6.7 5-11l2.8-17.5h-8.1l-2.6 16.4c-0.7 4.3-1.8 8.4-6.8 8.4-1.6 0-2.8-0.4-3.5-1.3-1.4-1.6-1-4.5-0.6-7.1l2.6-16.4h-8.2l-2.7 17.5c-0.7 4.3-1 8 1.5 11"/>
									</g>
									<defs>
										<rect id="z" x="-1.5" y="-2.2" width="42.7" height="42.7"/>
									</defs>
									<clipPath id="y">
										<use xlink:href="#z"/>
									</clipPath>
									<g class="st8">
												<defs>
													<rect id="x" x="5.2" y="4.4" width="30.7" height="32.2"/>
												</defs>
												<clipPath id="w">
													<use xlink:href="#x"/>
												</clipPath>
												<g class="st9">
															<defs>
																<rect id="v" x="5.2" y="4.4" width="30.7" height="32.2"/>
															</defs>
															<clipPath id="u">
																<use xlink:href="#v"/>
															</clipPath>
															<path class="st10" d="m35.7 4.5l-2.7 17.5c-0.7 4.3-1.5 8-5 11s-8.3 3.5-10.8 3.5-7.2-0.5-9.8-3.5c-2.5-3-2.2-6.7-1.5-11l2.7-17.5h8.1l-2.5 16.4c-0.4 2.6-0.8 5.6 0.6 7.1 0.7 0.9 1.9 1.3 3.5 1.3 5 0 6.1-4.2 6.8-8.5l2.6-16.4 8 0.1m0.2-0.1h-8.4v0.1l-2.6 16.4c-0.7 4.2-1.8 8.3-6.7 8.3-1.6 0-2.7-0.4-3.4-1.2-1.3-1.6-1-4.4-0.6-7l2.6-16.4v-0.2h-8.3v0.2l-2.8 17.4c-0.7 4.3-1 8.1 1.6 11.1s7.3 3.5 9.9 3.5c2.5 0 7.4-0.5 10.9-3.5s4.4-6.8 5-11l2.8-17.5v-0.2z"/>
												</g>
									</g>
									<defs>
										<rect id="s" x="-1.5" y="-2.2" width="42.7" height="42.7"/>
									</defs>
									<clipPath id="r">
										<use xlink:href="#s"/>
									</clipPath>
									<g class="st11">
												<defs>
													<rect id="q" x="11.4" y="6.8" width="26.6" height="31.9"/>
												</defs>
												<clipPath id="p">
													<use xlink:href="#q"/>
												</clipPath>
												<path class="st12" d="m11.6 36.8c-0.1 0-0.2 0-0.3-0.1 2.2 1.5 5.2 2 8.1 2 3.6 0 7.8-0.9 10.8-3.5 3.6-3 4.4-7 5-11l2.8-17.4h-0.2l-2.7 17.3c-0.6 4-1.4 7.9-5 11-3 2.5-7.2 3.5-10.8 3.5-2.7-0.1-5.5-0.6-7.7-1.8m4.8-13.6l2.6-16.4h-0.2l-2.5 16.2c-0.3 1.6-0.5 3.3-0.3 4.8l-0.3-0.3 0.4 0.4c-0.2-1.4 0-3.1 0.3-4.7"/>
									</g>
									<defs>
										<rect id="o" x="-1.5" y="-2.2" width="42.7" height="42.7"/>
									</defs>
									<clipPath id="n">
										<use xlink:href="#o"/>
									</clipPath>
									<g class="st13">
												<defs>
													<rect id="m" x="11.2" y="6.7" width="26.6" height="31.9"/>
												</defs>
												<clipPath id="l">
													<use xlink:href="#m"/>
												</clipPath>
												<path class="st14" d="m16.3 23l2.6-16.4h-1.5l-2.3 14.4c-0.4 2.4-0.7 5.1 0.4 6.4l0.4 0.4c-0.1-1.5 0.1-3.1 0.4-4.8m21.6-16.3h-1.5l-2.4 15.5c-0.7 4.5-1.6 8.4-5.3 11.6-3.8 3.2-8.8 3.7-11.5 3.7-1.5 0-3.8-0.2-5.9-0.9 2.2 1.4 5.2 2 8.1 2 3.6 0 7.8-0.9 10.8-3.5 3.6-3 4.4-7 5-11l2.7-17.4z"/>
									</g>
							</g>
					</g>
		</g>
		<defs>
			<circle id="k" cx="19.8" cy="19.8" r="19.8"/>
		</defs>
		<clipPath id="j">
			<use xlink:href="#k"/>
		</clipPath>
		<g class="st15">
				<rect class="st16" x="-1.4" y="-2.2" width="42.7" height="42.7"/>
		</g>
	<path d="m60.3 6.1v8.9c0 2-0.1 4.1-1.7 5.6-1.3 1.3-3.4 1.8-5.2 1.8s-3.9-0.5-5.2-1.8c-1.6-1.5-1.7-3.5-1.7-5.6v-8.9h4.1v8.3c0 2.1 0.1 4.3 2.8 4.3s2.8-2.2 2.8-4.3v-8.3h4.1z"/>
	<path d="m62.9 21.9v-15.8h5.9c2.8 0 4.7 1.1 4.7 4.1 0 1.4-0.5 2.6-1.7 3.2 2.3 0.3 3.2 1.8 3.2 4 0 3.3-2.8 4.4-5.7 4.4h-6.4zm4.1-9.6h0.5c1.1 0 2.2-0.2 2.2-1.5 0-1.4-1.3-1.5-2.4-1.5h-0.3v3zm0 6.5h0.5c1.2 0 3.3 0.1 3.3-1.7 0-1.9-2-1.7-3.4-1.7h-0.4v3.4z"/>
	<path d="m93.4 13.7c0 5.1-3.7 8.7-8.8 8.7s-8.8-3.6-8.8-8.7c0-4.8 4.2-8.1 8.8-8.1s8.8 3.3 8.8 8.1zm-13.2 0c0 2.7 2 4.7 4.5 4.7s4.5-2 4.5-4.7c0-2.2-2-4.2-4.5-4.2s-4.5 2.1-4.5 4.2z"/>
	<path d="m112 13.7c0 5.1-3.7 8.7-8.8 8.7s-8.8-3.6-8.8-8.7c0-4.8 4.2-8.1 8.8-8.1s8.8 3.3 8.8 8.1zm-13.2 0c0 2.7 2 4.7 4.5 4.7s4.5-2 4.5-4.7c0-2.2-2-4.2-4.5-4.2-2.5 0.1-4.5 2.1-4.5 4.2z"/>
	<path d="m127.5 22.9l-1.3-1.5c-1.2 0.7-2.6 1-4.3 1-5.1 0-8.8-3.6-8.8-8.7 0-4.8 4.2-8.1 8.8-8.1 4.9 0 8.8 3.3 8.8 8.5 0 2.1-0.7 3.9-2 5.6l2.7 2.7-3.9 0.5zm-1.9-6.5c0.5-0.7 0.7-1.5 0.7-2.3 0-2.4-2-4.5-4.5-4.5s-4.5 2-4.5 4.2c0 2.7 2 4.7 4.5 4.7 0.4 0 0.8-0.1 1.3-0.2l-2.5-2.5 3.9-0.5 1.1 1.1z"/>
	<path d="m146.3 6.1v8.9c0 2-0.1 4.1-1.7 5.6-1.3 1.3-3.4 1.8-5.2 1.8s-3.9-0.5-5.2-1.8c-1.6-1.5-1.7-3.5-1.7-5.6v-8.9h4.1v8.3c0 2.1 0.1 4.3 2.8 4.3 2.6 0 2.8-2.2 2.8-4.3v-8.3h4.1z"/>
	<path d="M153,21.9h-4.1V6.1h4.1V21.9z"/>
	<path d="M161.7,21.9h-4.1V9.6h-3.4V6.1h10.9v3.5h-3.4V21.9z"/>
	<path d="m165.3 6.1h4.9l3 4.3 3-4.3h4.9l-5.8 8.2v7.6h-4.1v-7.6l-5.9-8.2z"/>
	<path d="m116.6 33.7v0.1c0 0.3-1.2 0.7-2.1 0.7-1.6 0-2.7-0.9-2.7-3.1 0-1.9 1-3.2 2.6-3.2 2 0 2.4 1.8 2.4 3.3 0 0.2 0 0.3-0.3 0.3h-3.2c0 0.7 0.2 1.5 1.3 1.5 0.9 0 1.4-0.4 1.5-0.4s0.1 0 0.1 0.1l0.4 0.7zm-1.4-3c0-0.5 0-1.3-0.9-1.3s-1 1-1 1.3h1.9z"/>
	<path d="m119.8 28.8c0.2-0.2 0.7-0.5 1.3-0.5 1.6 0 2.1 1.4 2.1 3 0 2-0.9 3.3-2.5 3.3-0.7 0-0.9-0.3-1.1-0.5 0 0.1-0.2 0.5-0.3 0.5h-0.2l-1-0.2c-0.1 0-0.1 0-0.1-0.1s0.1-0.2 0.2-0.6v-0.7-6.7c0-0.2 0.1-0.2 0.2-0.2l1-0.2h0.2c0.1 0 0.1 0 0.1 0.3v2.6zm0 4.3c0.1 0.1 0.3 0.3 0.6 0.3 1.1 0 1.3-1.1 1.3-2.1s-0.2-1.9-1.1-1.9c-0.4 0-0.7 0.3-0.8 0.4v3.3z"/>
	<path d="m126.9 34.6c-1.6 0-2.6-1.2-2.6-3.2 0-1.9 1-3.2 2.6-3.2s2.6 1.2 2.6 3.2c0 1.9-1 3.2-2.6 3.2zm1-3.2c0-1.1-0.2-2-1-2s-1 0.9-1 2 0.1 2 1 2 1-0.9 1-2z"/>
	<path d="m133.1 34.6c-1.6 0-2.6-1.2-2.6-3.2 0-1.9 1-3.2 2.6-3.2s2.6 1.2 2.6 3.2c0 1.9-1 3.2-2.6 3.2zm1-3.2c0-1.1-0.2-2-1-2s-1 0.9-1 2 0.1 2 1 2 1-0.9 1-2z"/>
	<path d="m142.1 33.7c0.1 0.1 0.1 0.1 0.1 0.2s0 0.1-0.1 0.1l-1 0.6h-0.1s-0.1-0.1-0.1-0.1l-2.2-2.9v2.6c0 0.1 0 0.2-0.2 0.2h-1.2c-0.1 0-0.2 0-0.2-0.2v-8.1c0-0.2 0.1-0.2 0.2-0.2l1-0.2h0.2c0.1 0 0.1 0 0.1 0.3v4.8l2.3-2.3s0.1-0.1 0.2-0.1 0.1 0.1 0.2 0.1l0.6 0.5 0.1 0.1s0 0.1-0.1 0.2l-1.9 1.9 2.1 2.5z"/>
	<path d="m149.9 29.4c0 0.1-0.1 0.1-0.1 0.1-0.1 0-0.6-0.3-1.2-0.3-0.5 0-0.9 0.2-0.9 0.8 0 1.3 2.7 0.9 2.7 2.8 0 1.1-0.9 1.7-1.9 1.7-0.6 0-1.8-0.3-1.8-0.6v-0.1l0.2-0.4c0-0.1 0.1-0.1 0.1-0.1 0.1 0 0.7 0.4 1.5 0.4 0.5 0 1-0.3 1-0.9 0-1.2-2.7-1-2.7-2.8 0-1 0.8-1.7 1.8-1.7 0.4 0 1.1 0.2 1.4 0.4 0.1 0 0.1 0.1 0.1 0.2v0.1l-0.2 0.4z"/>
	<path d="m155.8 33.8v0c0 0.2-1 0.7-1.9 0.7-1.6 0-2.5-1.2-2.5-3s0.9-3 2.4-3c2 0 2.2 1.9 2.2 3 0 0.2 0 0.3-0.1 0.3h-3.4c0 0.7 0.3 2.1 1.7 2.1 0.8 0 1.4-0.5 1.5-0.5l0.1 0.1v0.3zm-0.8-2.9c0-0.6-0.2-1.8-1.2-1.8-1.1 0-1.3 1.2-1.3 1.8h2.5z"/>
	<path d="m158.4 34.2c0 0.1 0 0.1-0.1 0.1h-0.6c-0.1 0-0.1 0-0.1-0.1v-4.1c0-0.2 0-0.6-0.2-0.9-0.1-0.2-0.1-0.3-0.1-0.3 0-0.1 0.1-0.1 0.1-0.1l0.4-0.3 0.1-0.1c0.2 0 0.4 0.7 0.5 1 0.3-0.3 0.7-1 1.4-1 0.3 0 0.6 0.1 0.6 0.2v0.1l-0.3 0.6s0 0.1-0.1 0.1-0.2-0.1-0.4-0.1c-0.4 0-0.8 0.6-1.1 0.9v4z"/>
	<path d="m163.8 34.3c0 0.1 0 0.1-0.2 0.1h-0.5c-0.1 0-0.1 0-0.1-0.1l-2-5.5v-0.1s0-0.1 0.1-0.1l0.6-0.2h0.1l0.1 0.1 1.3 3.9c0.1 0.3 0.2 0.5 0.2 0.8 0.1-0.3 0.1-0.5 0.2-0.7l1.4-3.9s0-0.1 0.1-0.1h0.1l0.6 0.2c0.1 0 0.1 0 0.1 0.1v0.1l-2.1 5.4z"/>
	<path d="m170.9 33.8s0.1 0.1 0 0c0 0.2-1 0.7-1.9 0.7-1.6 0-2.5-1.2-2.5-3s0.9-3 2.4-3c2 0 2.2 1.9 2.2 3 0 0.2 0 0.3-0.1 0.3h-3.4c0 0.7 0.3 2.1 1.7 2.1 0.8 0 1.4-0.5 1.5-0.5l0.1 0.1v0.3zm-0.8-2.9c0-0.6-0.2-1.8-1.2-1.8-1.1 0-1.3 1.2-1.3 1.8h2.5z"/>
	<path d="m173.5 34.2c0 0.1 0 0.1-0.1 0.1h-0.6c-0.1 0-0.1 0-0.1-0.1v-4.1c0-0.2 0-0.6-0.2-0.9-0.1-0.2-0.1-0.3-0.1-0.3 0-0.1 0.1-0.1 0.1-0.1l0.4-0.3 0.1-0.1c0.2 0 0.4 0.7 0.5 1 0.3-0.3 0.7-1 1.4-1 0.3 0 0.6 0.1 0.6 0.2v0.1l-0.3 0.6s0 0.1-0.1 0.1-0.2-0.1-0.4-0.1c-0.4 0-0.8 0.6-1.1 0.9v4z"/>
</svg>
