<?xml version="1.0" encoding="utf-8"?>
<!-- Generator: Adobe Illustrator 23.0.2, SVG Export Plug-In . SVG Version: 6.00 Build 0)  -->
<svg version="1.1" id="Lager_1" xmlns="http://www.w3.org/2000/svg" xmlns:xlink="http://www.w3.org/1999/xlink" x="0px" y="0px"
	 viewBox="0 0 181.31 39.69" enable-background="new 0 0 181.31 39.69" xml:space="preserve">
<g>
	<g>
		<defs>
			<circle id="SVGID_1_" cx="19.84" cy="19.84" r="19.84"/>
		</defs>
		<clipPath id="SVGID_2_">
			<use xlink:href="#SVGID_1_"  overflow="visible"/>
		</clipPath>
		<g clip-path="url(#SVGID_2_)">
			<g>
				
					<linearGradient id="SVGID_3_" gradientUnits="userSpaceOnUse" x1="19.94" y1="851.307" x2="19.94" y2="808.6942" gradientTransform="matrix(1 0 0 1 0 -810.8742)">
					<stop  offset="0" style="stop-color:#29B386"/>
					<stop  offset="0.2716" style="stop-color:#2BAE8C"/>
					<stop  offset="0.6316" style="stop-color:#30A09D"/>
					<stop  offset="1" style="stop-color:#378BB5"/>
				</linearGradient>
				<rect x="-1.39" y="-2.18" fill="url(#SVGID_3_)" width="42.66" height="42.66"/>
				
					<radialGradient id="White_Radial_gradient_2_" cx="19.7957" cy="830.0557" r="21.3213" gradientTransform="matrix(1 0 0 1 0 -810.8742)" gradientUnits="userSpaceOnUse">
					<stop  offset="0" style="stop-color:#FFFFFF;stop-opacity:0.38"/>
					<stop  offset="1" style="stop-color:#FFFFFF;stop-opacity:0"/>
				</radialGradient>
				<rect id="White_Radial_gradient_1_" x="-1.49" y="-2.08" fill="url(#White_Radial_gradient_2_)" width="42.66" height="42.66"/>
			</g>
		</g>
	</g>
</g>
<g>
	<defs>
		<circle id="SVGID_4_" cx="19.84" cy="19.84" r="19.84"/>
	</defs>
	<clipPath id="SVGID_5_">
		<use xlink:href="#SVGID_4_"  overflow="visible"/>
	</clipPath>
	<g clip-path="url(#SVGID_5_)">
		<g>
			<defs>
				<rect id="SVGID_6_" x="-1.49" y="-2.18" width="42.66" height="42.66"/>
			</defs>
			<clipPath id="SVGID_7_">
				<use xlink:href="#SVGID_6_"  overflow="visible"/>
			</clipPath>
			<g clip-path="url(#SVGID_7_)">
				<defs>
					<rect id="SVGID_8_" x="-1.49" y="-2.18" width="42.66" height="42.66"/>
				</defs>
				<clipPath id="SVGID_9_">
					<use xlink:href="#SVGID_8_"  overflow="visible"/>
				</clipPath>
				<g clip-path="url(#SVGID_9_)">
					<defs>
						<rect id="SVGID_10_" x="-1.49" y="-2.18" width="42.66" height="42.66"/>
					</defs>
					<clipPath id="SVGID_11_">
						<use xlink:href="#SVGID_10_"  overflow="visible"/>
					</clipPath>
					<g opacity="0.6" clip-path="url(#SVGID_11_)">
						<g>
							<defs>
								<rect id="SVGID_12_" x="5.39" y="4.54" width="30.35" height="31.89"/>
							</defs>
							<clipPath id="SVGID_13_">
								<use xlink:href="#SVGID_12_"  overflow="visible"/>
							</clipPath>
							<path clip-path="url(#SVGID_13_)" fill="#FFFFFF" d="M7.39,32.97c2.57,3.01,7.22,3.46,9.76,3.46c2.53,0,7.29-0.45,10.84-3.46
								c3.5-2.93,4.33-6.7,4.99-10.96l2.76-17.47h-8.08L25.1,20.9c-0.7,4.28-1.8,8.45-6.84,8.45c-1.63,0-2.78-0.42-3.52-1.3
								c-1.37-1.61-1.02-4.53-0.6-7.15L16.7,4.54H8.62v0L5.86,22.01C5.21,26.27,4.86,30.04,7.39,32.97"/>
						</g>
					</g>
					<g opacity="0.6" clip-path="url(#SVGID_11_)">
						<g>
							<defs>
								<rect id="SVGID_14_" x="5.24" y="4.39" width="30.67" height="32.19"/>
							</defs>
							<clipPath id="SVGID_15_">
								<use xlink:href="#SVGID_14_"  overflow="visible"/>
							</clipPath>
							<g opacity="0.26" clip-path="url(#SVGID_15_)">
								<g>
									<defs>
										<rect id="SVGID_16_" x="5.24" y="4.39" width="30.67" height="32.19"/>
									</defs>
									<clipPath id="SVGID_17_">
										<use xlink:href="#SVGID_16_"  overflow="visible"/>
									</clipPath>
									<path clip-path="url(#SVGID_17_)" fill="#FFFFFF" d="M35.74,4.54l-2.76,17.47c-0.66,4.26-1.49,8.03-4.99,10.96
										c-3.55,3.01-8.31,3.46-10.84,3.46c-2.54,0-7.19-0.45-9.76-3.46c-2.52-2.92-2.18-6.69-1.52-10.96L8.62,4.54v0h8.07
										L14.14,20.9c-0.43,2.62-0.77,5.55,0.6,7.15c0.74,0.87,1.89,1.3,3.52,1.3c5.04,0,6.14-4.17,6.84-8.45l2.56-16.36H35.74
										 M35.91,4.39h-0.18h-8.08h-0.13l-0.02,0.13l-2.56,16.36c-0.69,4.21-1.77,8.32-6.69,8.32c-1.58,0-2.7-0.41-3.41-1.24
										c-1.32-1.56-0.98-4.45-0.56-7.03l2.56-16.36l0.03-0.17H16.7H8.62H8.47v0.15L5.72,21.98c-0.67,4.3-1.01,8.11,1.56,11.08
										c2.61,3.05,7.31,3.51,9.88,3.51c2.55,0,7.35-0.45,10.93-3.49c3.54-2.97,4.37-6.76,5.04-11.05l2.76-17.47L35.91,4.39z"/>
								</g>
							</g>
						</g>
					</g>
					<g opacity="0.1" clip-path="url(#SVGID_11_)">
						<g>
							<defs>
								<rect id="SVGID_18_" x="11.36" y="6.8" width="26.64" height="31.89"/>
							</defs>
							<clipPath id="SVGID_19_">
								<use xlink:href="#SVGID_18_"  overflow="visible"/>
							</clipPath>
							<path clip-path="url(#SVGID_19_)" d="M11.65,36.77c-0.1-0.03-0.19-0.05-0.28-0.08c2.23,1.45,5.24,2.01,8.06,2.01
								c3.63,0,7.83-0.91,10.84-3.46c3.58-3.01,4.37-6.96,4.99-10.96L38,6.8h-0.17L35.1,24.13c-0.62,4-1.4,7.95-4.99,10.96
								c-3.01,2.55-7.21,3.46-10.84,3.46C16.62,38.55,13.83,38.03,11.65,36.77 M16.41,23.16L18.97,6.8H18.8l-2.53,16.22
								c-0.27,1.64-0.49,3.33-0.31,4.78c-0.13-0.08-0.23-0.19-0.33-0.29c0.01,0.01,0.02,0.03,0.02,0.04
								c0.13,0.15,0.28,0.28,0.45,0.4C15.92,26.5,16.14,24.8,16.41,23.16"/>
						</g>
					</g>
					<g opacity="0.26" clip-path="url(#SVGID_11_)">
						<g>
							<defs>
								<rect id="SVGID_20_" x="11.22" y="6.66" width="26.64" height="31.89"/>
							</defs>
							<clipPath id="SVGID_21_">
								<use xlink:href="#SVGID_20_"  overflow="visible"/>
							</clipPath>
							<path clip-path="url(#SVGID_21_)" fill="#A1CEE6" d="M16.27,23.02l2.56-16.36h-1.45l-2.25,14.39
								c-0.39,2.4-0.72,5.07,0.37,6.35c0.13,0.15,0.28,0.28,0.45,0.4C15.78,26.35,16,24.66,16.27,23.02 M37.86,6.66h-1.45
								l-2.45,15.5c-0.69,4.46-1.57,8.41-5.33,11.57c-3.79,3.22-8.82,3.69-11.48,3.69c-1.52,0-3.76-0.16-5.93-0.88
								c2.23,1.44,5.24,2,8.06,2c3.63,0,7.83-0.91,10.84-3.46c3.58-3.01,4.37-6.96,4.99-10.96L37.86,6.66z"/>
						</g>
					</g>
				</g>
			</g>
		</g>
	</g>
	<g clip-path="url(#SVGID_5_)">
		<g>
			<rect x="-1.39" y="-2.18" fill="none" width="42.66" height="42.66"/>
		</g>
	</g>
</g>
<g>
	<path d="M60.48,6.11v8.9c0,2.04-0.08,4.05-1.66,5.58c-1.32,1.3-3.4,1.76-5.25,1.76s-3.93-0.46-5.25-1.76
		c-1.57-1.53-1.66-3.55-1.66-5.58v-8.9h4.12v8.33c0,2.06,0.15,4.3,2.79,4.3s2.79-2.25,2.79-4.3V6.11H60.48z"/>
	<path d="M63.06,21.94V6.11h5.88c2.81,0,4.7,1.09,4.7,4.12c0,1.43-0.46,2.58-1.74,3.23v0.04c2.27,0.29,3.23,1.83,3.23,4.03
		c0,3.32-2.83,4.41-5.73,4.41H63.06z M67.18,12.33h0.46c1.09,0,2.23-0.19,2.23-1.53c0-1.45-1.28-1.53-2.39-1.53h-0.29V12.33z
		 M67.18,18.79h0.52c1.22,0,3.28,0.06,3.28-1.68c0-1.91-2.04-1.72-3.38-1.72h-0.42V18.79z"/>
	<path d="M93.63,13.73c0,5.12-3.67,8.73-8.76,8.73s-8.76-3.61-8.76-8.73c0-4.79,4.2-8.15,8.76-8.15S93.63,8.95,93.63,13.73z
		 M80.41,13.75c0,2.73,2.02,4.72,4.47,4.72s4.47-1.99,4.47-4.72c0-2.18-2.02-4.18-4.47-4.18S80.41,11.57,80.41,13.75z"/>
	<path d="M112.24,13.73c0,5.12-3.67,8.73-8.75,8.73c-5.08,0-8.76-3.61-8.76-8.73c0-4.79,4.2-8.15,8.76-8.15
		C108.04,5.59,112.24,8.95,112.24,13.73z M99.01,13.75c0,2.73,2.02,4.72,4.47,4.72c2.46,0,4.47-1.99,4.47-4.72
		c0-2.18-2.02-4.18-4.47-4.18C101.03,9.58,99.01,11.57,99.01,13.75z"/>
	<path d="M127.7,22.93l-1.26-1.49c-1.22,0.73-2.64,1.03-4.35,1.03c-5.08,0-8.76-3.61-8.76-8.73c0-4.79,4.2-8.15,8.76-8.15
		c4.93,0,8.76,3.34,8.76,8.48c0,2.1-0.71,3.93-2.04,5.56l2.67,2.71L127.7,22.93z M125.83,16.42c0.48-0.67,0.74-1.53,0.74-2.33
		c0-2.37-1.97-4.51-4.45-4.51c-2.46,0-4.49,2-4.49,4.18c0,2.73,2.04,4.72,4.49,4.72c0.42,0,0.84-0.06,1.26-0.21l-2.54-2.52
		l3.88-0.48L125.83,16.42z"/>
	<path d="M146.47,6.11v8.9c0,2.04-0.08,4.05-1.66,5.58c-1.32,1.3-3.4,1.76-5.25,1.76s-3.93-0.46-5.25-1.76
		c-1.57-1.53-1.66-3.55-1.66-5.58v-8.9h4.12v8.33c0,2.06,0.15,4.3,2.79,4.3c2.64,0,2.79-2.25,2.79-4.3V6.11H146.47z"/>
	<path d="M153.19,21.94h-4.12V6.11h4.12V21.94z"/>
	<path d="M161.91,21.94h-4.12V9.6h-3.4V6.11h10.92V9.6h-3.4V21.94z"/>
	<path d="M165.52,6.11h4.93l2.96,4.3l2.96-4.3h4.93l-5.84,8.23v7.6h-4.12v-7.6L165.52,6.11z"/>
</g>
<g>
	<path d="M56.57,35.79c0.01,0.04,0.04,0.08,0.04,0.12c0,0.29-0.97,0.64-1.69,0.64c-1.67,0-2.66-1.02-2.66-3.05
		c0-2.03,1.02-3.29,2.79-3.29c0.65,0,1.7,0.36,1.7,0.73c0,0.04-0.02,0.07-0.04,0.11l-0.44,0.78c-0.02,0.02-0.05,0.06-0.08,0.06
		c-0.12,0-0.52-0.48-1.14-0.48c-0.82,0-1.18,0.62-1.18,2c0,1.32,0.31,1.93,1.24,1.93c0.61,0,0.85-0.41,1.07-0.41
		c0.04,0,0.06,0.02,0.08,0.06L56.57,35.79z"/>
	<path d="M59.98,36.55c-1.62,0-2.6-1.24-2.6-3.17c0-1.93,0.98-3.17,2.6-3.17c1.61,0,2.6,1.24,2.6,3.17
		C62.58,35.31,61.6,36.55,59.98,36.55z M60.97,33.38c0-1.12-0.16-1.97-0.98-1.97c-0.83,0-0.98,0.85-0.98,1.97
		c0,1.12,0.14,1.97,0.98,1.97C60.82,35.35,60.97,34.51,60.97,33.38z"/>
	<path d="M71.56,36.17c0,0.13-0.02,0.17-0.17,0.17H70.2c-0.14,0-0.17-0.04-0.17-0.17v-3.69c0-0.46-0.05-1.01-0.5-1.01
		c-0.5,0-0.9,0.35-1.06,0.49v4.21c0,0.13-0.02,0.17-0.17,0.17h-1.19c-0.14,0-0.17-0.04-0.17-0.17v-3.69c0-0.46-0.05-1.01-0.5-1.01
		c-0.5,0-0.9,0.35-1.06,0.49v4.21c0,0.13-0.02,0.17-0.17,0.17h-1.19c-0.14,0-0.17-0.04-0.17-0.17v-3.62c0-1.69-0.23-1.59-0.23-1.87
		c0-0.06,0.05-0.11,0.13-0.13l0.91-0.3c0.07-0.02,0.13-0.04,0.18-0.04c0.16,0,0.25,0.26,0.38,0.83c0.36-0.31,0.89-0.83,1.83-0.83
		c0.52,0,1.08,0.32,1.22,0.83c0.36-0.31,0.88-0.83,1.86-0.83c1.13,0,1.39,0.85,1.39,1.9V36.17z"/>
	<path d="M75.1,36.17c0,0.13-0.02,0.17-0.17,0.17h-1.19c-0.14,0-0.17-0.04-0.17-0.17v-4.64h-0.92c-0.14,0-0.17-0.04-0.17-0.17v-0.78
		c0-0.13,0.02-0.17,0.17-0.17h2.28c0.14,0,0.17,0.04,0.17,0.17V36.17z M74.33,29.64c-0.55,0-1-0.44-1-1s0.44-0.98,1-0.98
		c0.54,0,0.98,0.43,0.98,0.98S74.87,29.64,74.33,29.64z"/>
	<path d="M80.74,35.79c0.01,0.04,0.04,0.08,0.04,0.12c0,0.29-0.97,0.64-1.69,0.64c-1.67,0-2.66-1.02-2.66-3.05
		c0-2.03,1.02-3.29,2.79-3.29c0.65,0,1.7,0.36,1.7,0.73c0,0.04-0.02,0.07-0.04,0.11l-0.44,0.78c-0.02,0.02-0.05,0.06-0.08,0.06
		c-0.12,0-0.52-0.48-1.14-0.48c-0.82,0-1.18,0.62-1.18,2c0,1.32,0.31,1.93,1.24,1.93c0.61,0,0.85-0.41,1.07-0.41
		c0.04,0,0.06,0.02,0.08,0.06L80.74,35.79z"/>
	<path d="M89.44,34.45c0,0.75,0.04,0.86,0.14,1.2c0.05,0.14,0.22,0.37,0.22,0.44c0,0.05-0.06,0.07-0.11,0.1l-0.47,0.29
		c-0.05,0.02-0.07,0.04-0.1,0.04c-0.18,0-0.4-0.64-0.46-0.8c-0.14,0.13-0.73,0.8-1.73,0.8c-0.95,0-1.56-0.62-1.56-1.69
		c0-2.03,2.4-2.06,3.14-2.09V32.3c0-0.7-0.22-1.08-1.07-1.08c-0.8,0-1.35,0.38-1.46,0.38c-0.04,0-0.07-0.02-0.08-0.06l-0.16-0.42
		c-0.02-0.06-0.04-0.1-0.04-0.16c0-0.2,1.1-0.55,1.87-0.55c1.38,0,1.85,0.67,1.85,1.68V34.45z M88.53,33.48
		c-0.53,0.01-2.24,0.01-2.24,1.27c0,0.48,0.26,1.02,0.88,1.02c0.62,0,1.18-0.58,1.37-0.74V33.48z"/>
	<path d="M95.51,36.2c0,0.1-0.05,0.14-0.14,0.14h-0.62c-0.1,0-0.14-0.05-0.14-0.14v-4.01c0-0.52-0.13-0.97-0.78-0.97
		c-0.78,0-1.28,0.47-1.58,0.73v4.25c0,0.1-0.05,0.14-0.14,0.14h-0.62c-0.1,0-0.14-0.05-0.14-0.14v-4.14c0-0.4,0-0.53-0.05-0.71
		c-0.1-0.36-0.19-0.44-0.19-0.5c0-0.02,0.01-0.05,0.06-0.08l0.54-0.3c0.02-0.01,0.06-0.05,0.1-0.05c0.22,0,0.36,0.72,0.37,0.82
		c0.4-0.31,1.02-0.82,1.93-0.82c1.33,0,1.43,0.94,1.43,1.8V36.2z"/>
	<path d="M101.47,34.45c0,0.54,0,0.9,0.13,1.2c0.06,0.14,0.22,0.37,0.22,0.44c0,0.05-0.06,0.07-0.11,0.1l-0.47,0.29
		c-0.05,0.02-0.07,0.04-0.1,0.04c-0.17,0-0.38-0.52-0.43-0.71c-0.29,0.2-0.88,0.71-1.76,0.71c-1.28,0-1.87-1.44-1.87-2.93
		c0-1.73,0.61-3.17,2-3.17c0.74,0,1.15,0.2,1.48,0.41v-2.85c0-0.08,0.04-0.13,0.08-0.14l0.59-0.14c0.1-0.02,0.06-0.01,0.14-0.02
		c0.1,0,0.1,0.1,0.1,0.16V34.45z M100.55,31.62c-0.38-0.2-0.77-0.4-1.37-0.4c-1.03,0-1.13,1.17-1.13,2.34
		c0,1.01,0.08,2.15,1.06,2.15c0.62,0,1.15-0.53,1.44-0.71V31.62z"/>
	<path d="M111.3,35.71c0.02,0.04,0.04,0.08,0.04,0.13c0,0.31-1.2,0.71-2.15,0.71c-1.58,0-2.69-0.9-2.69-3.11
		c0-1.91,1.02-3.23,2.63-3.23c2.04,0,2.4,1.82,2.4,3.27c0,0.23-0.05,0.3-0.28,0.3h-3.23c0,0.67,0.19,1.5,1.32,1.5
		c0.86,0,1.36-0.4,1.52-0.4c0.06,0,0.11,0.05,0.13,0.1L111.3,35.71z M109.91,32.67c0-0.49-0.04-1.34-0.86-1.34
		c-0.94,0-0.98,1.01-1.02,1.34H109.91z"/>
	<path d="M114.45,30.74c0.24-0.18,0.67-0.53,1.33-0.53c1.63,0,2.1,1.44,2.1,3c0,2.04-0.88,3.33-2.48,3.33
		c-0.68,0-0.95-0.34-1.14-0.53c-0.05,0.13-0.17,0.53-0.35,0.53c-0.06,0-0.12-0.01-0.17-0.02l-0.96-0.24
		c-0.06-0.01-0.12-0.05-0.12-0.1c0-0.11,0.13-0.22,0.22-0.62c0.05-0.24,0.05-0.49,0.05-0.74v-6.7c0-0.18,0.08-0.18,0.23-0.22
		l1.01-0.2c0.04,0,0.14-0.04,0.17-0.04c0.1,0,0.12,0.05,0.12,0.25V30.74z M114.45,35.1c0.07,0.06,0.28,0.25,0.6,0.25
		c1.09,0,1.31-1.12,1.31-2.05c0-0.96-0.17-1.88-1.08-1.88c-0.41,0-0.67,0.28-0.83,0.41V35.1z"/>
	<path d="M121.57,36.55c-1.62,0-2.6-1.24-2.6-3.17c0-1.93,0.98-3.17,2.6-3.17c1.61,0,2.6,1.24,2.6,3.17
		C124.17,35.31,123.18,36.55,121.57,36.55z M122.55,33.38c0-1.12-0.16-1.97-0.98-1.97c-0.83,0-0.98,0.85-0.98,1.97
		c0,1.12,0.14,1.97,0.98,1.97C122.4,35.35,122.55,34.51,122.55,33.38z"/>
	<path d="M127.79,36.55c-1.62,0-2.6-1.24-2.6-3.17c0-1.93,0.98-3.17,2.6-3.17c1.61,0,2.6,1.24,2.6,3.17
		C130.4,35.31,129.41,36.55,127.79,36.55z M128.78,33.38c0-1.12-0.16-1.97-0.98-1.97c-0.83,0-0.98,0.85-0.98,1.97
		c0,1.12,0.14,1.97,0.98,1.97C128.63,35.35,128.78,34.51,128.78,33.38z"/>
	<path d="M136.8,35.65c0.06,0.06,0.11,0.13,0.11,0.18s-0.01,0.08-0.06,0.11l-1.02,0.56c-0.05,0.02-0.1,0.05-0.14,0.05
		c-0.05,0-0.11-0.07-0.14-0.12l-2.19-2.87h-0.02v2.61c0,0.13-0.02,0.17-0.17,0.17h-1.19c-0.14,0-0.17-0.04-0.17-0.17v-8.06
		c0-0.17,0.08-0.19,0.23-0.22l1.01-0.2c0.04-0.01,0.16-0.04,0.19-0.04c0.07,0,0.1,0.05,0.1,0.25v4.75l2.3-2.33
		c0.04-0.05,0.13-0.12,0.17-0.12c0.07,0,0.12,0.06,0.22,0.13l0.6,0.49c0.05,0.05,0.06,0.08,0.06,0.13s-0.05,0.1-0.11,0.16
		l-1.94,1.89L136.8,35.65z"/>
	<path d="M144.69,31.38c-0.05,0.1-0.07,0.14-0.14,0.14c-0.08,0-0.59-0.32-1.21-0.32c-0.48,0-0.89,0.24-0.89,0.79
		c0,1.32,2.66,0.95,2.66,2.82c0,1.13-0.89,1.7-1.92,1.7c-0.58,0-1.82-0.34-1.82-0.58c0-0.06,0.02-0.1,0.05-0.14l0.17-0.37
		c0.04-0.08,0.07-0.11,0.11-0.11c0.11,0,0.73,0.42,1.55,0.42c0.52,0,0.96-0.29,0.96-0.86c0-1.25-2.66-0.97-2.66-2.78
		c0-0.97,0.76-1.67,1.81-1.67c0.41,0,1.1,0.19,1.42,0.36c0.1,0.05,0.13,0.1,0.13,0.16c0,0.04-0.04,0.07-0.05,0.12L144.69,31.38z"/>
	<path d="M150.57,35.79c0.01,0.04,0.04,0.06,0.04,0.1c0,0.13-1.01,0.62-1.89,0.62c-1.6-0.01-2.53-1.22-2.53-3.05
		c0-1.76,0.89-3.05,2.37-3.05c2,0,2.18,1.94,2.18,2.97c0,0.17,0,0.26-0.13,0.26h-3.44c0,0.73,0.29,2.05,1.65,2.05
		c0.78,0,1.4-0.49,1.48-0.49c0.04,0,0.05,0.04,0.07,0.07L150.57,35.79z M149.75,32.91c0-0.62-0.2-1.75-1.25-1.75
		c-1.1,0-1.34,1.15-1.34,1.75H149.75z"/>
	<path d="M153.14,36.2c0,0.1-0.05,0.14-0.14,0.14h-0.62c-0.1,0-0.14-0.05-0.14-0.14v-4.11c0-0.22-0.04-0.61-0.2-0.91
		c-0.1-0.17-0.13-0.26-0.13-0.3c0.01-0.07,0.06-0.11,0.08-0.12l0.44-0.28c0.05-0.04,0.1-0.06,0.12-0.06c0.22,0,0.42,0.74,0.47,1.01
		c0.31-0.34,0.74-1.01,1.44-1.01c0.28,0,0.59,0.1,0.59,0.2c0,0.02-0.02,0.06-0.04,0.1l-0.26,0.61c-0.01,0.02-0.02,0.08-0.07,0.08
		c-0.06,0-0.17-0.11-0.4-0.11c-0.42,0-0.84,0.62-1.13,0.94V36.2z"/>
	<path d="M158.54,36.32c-0.04,0.08-0.05,0.11-0.16,0.11h-0.47c-0.11,0-0.12-0.05-0.14-0.11l-2.01-5.47c0-0.02-0.02-0.05-0.02-0.08
		c0-0.05,0.02-0.06,0.11-0.08l0.59-0.16c0.04,0,0.07-0.02,0.12-0.02c0.05,0,0.05,0.05,0.08,0.1l1.33,3.9
		c0.08,0.25,0.16,0.53,0.22,0.75h0.02c0.06-0.29,0.11-0.46,0.22-0.74l1.42-3.91c0.04-0.05,0.04-0.1,0.08-0.1
		c0.05,0,0.08,0.02,0.12,0.02l0.59,0.16c0.08,0.02,0.11,0.04,0.11,0.08c0,0.04-0.02,0.06-0.02,0.08L158.54,36.32z"/>
	<path d="M165.71,35.79c0.01,0.04,0.04,0.06,0.04,0.1c0,0.13-1.01,0.62-1.89,0.62c-1.6-0.01-2.53-1.22-2.53-3.05
		c0-1.76,0.89-3.05,2.37-3.05c2,0,2.18,1.94,2.18,2.97c0,0.17,0,0.26-0.13,0.26h-3.44c0,0.73,0.29,2.05,1.65,2.05
		c0.78,0,1.4-0.49,1.48-0.49c0.04,0,0.05,0.04,0.07,0.07L165.71,35.79z M164.9,32.91c0-0.62-0.2-1.75-1.25-1.75
		c-1.1,0-1.34,1.15-1.34,1.75H164.9z"/>
	<path d="M168.28,36.2c0,0.1-0.05,0.14-0.14,0.14h-0.62c-0.1,0-0.14-0.05-0.14-0.14v-4.11c0-0.22-0.04-0.61-0.2-0.91
		c-0.1-0.17-0.13-0.26-0.13-0.3c0.01-0.07,0.06-0.11,0.08-0.12l0.44-0.28c0.05-0.04,0.1-0.06,0.12-0.06c0.22,0,0.42,0.74,0.47,1.01
		c0.31-0.34,0.74-1.01,1.44-1.01c0.28,0,0.59,0.1,0.59,0.2c0,0.02-0.02,0.06-0.04,0.1l-0.26,0.61c-0.01,0.02-0.02,0.08-0.07,0.08
		c-0.06,0-0.17-0.11-0.4-0.11c-0.42,0-0.84,0.62-1.13,0.94V36.2z"/>
</g>
<g>
	<defs>
		<circle id="SVGID_22_" cx="19.84" cy="19.84" r="19.84"/>
	</defs>
	<clipPath id="SVGID_23_">
		<use xlink:href="#SVGID_22_"  overflow="visible"/>
	</clipPath>
</g>
</svg>
